<svg height="75" viewBox="0 0 75 75" width="75" xmlns="http://www.w3.org/2000/svg" xmlns:xlink="http://www.w3.org/1999/xlink"><mask id="a" fill="#fff"><path d="m21.3.749c-1.193.002-2.218.844-2.45 2.014l-.738 3.688-3.539 1.468-3.126-2.087c-.99-.661-2.31-.532-3.155.309l-2.404 2.406c-.842.844-.972 2.164-.309 3.154l2.086 3.125-1.465 3.537-3.688.737c-1.168.233-2.01 1.258-2.012 2.451v3.4c.002 1.191.844 2.216 2.012 2.449l3.688.737 1.465 3.54-2.086 3.127c-.663.99-.533 2.31.309 3.154l2.408 2.405c.844.842 2.164.971 3.154.308l3.126-2.085 3.536 1.465.738 3.686c.232 1.17 1.257 2.012 2.45 2.014h3.4c1.191-.002 2.216-.844 2.449-2.014l.739-3.686 3.54-1.465 3.125 2.085c.99.663 2.312.534 3.154-.308l2.405-2.408c.842-.844.971-2.165.309-3.156l-2.086-3.125 1.465-3.537 3.688-.737c1.168-.233 2.012-1.258 2.012-2.449v-3.4c0-1.193-.844-2.218-2.012-2.451l-3.688-.737-1.469-3.54 2.086-3.125c.663-.992.534-2.312-.309-3.156l-2.404-2.405c-.844-.84-2.165-.97-3.155-.308l-3.126 2.087-3.535-1.465-.739-3.688c-.233-1.17-1.258-2.012-2.449-2.014z" fill="#fff" fill-rule="evenodd"/></mask><mask id="b" fill="#fff"><path d="m5.251.25c-2.762 0-5.001 2.24-5.001 5v5h72.5v-5c0-2.76-2.238-5-5-5z" fill="#fff" fill-rule="evenodd"/></mask><mask id="c" fill="#fff"><path d="m0 5.251c0 2.76 2.238 4.999 5 4.999s5-2.239 5-4.999c0-2.762-2.238-5.001-5-5.001s-5 2.239-5 5.001z" fill="#fff" fill-rule="evenodd"/></mask><g fill="none" fill-rule="evenodd"><path d="m-4.5 50.75h55v-55h-55z" fill="#03d79e" mask="url(#a)" transform="translate(22 23)"/><path d="m-4.75 15.25h82.5v-20h-82.5z" fill="#00ffa4" mask="url(#b)" transform="translate(1 1)"/><path d="m-5 15.25h20v-20h-20z" fill="#00ffa4" mask="url(#c)" transform="translate(40 41)"/><g fill="#00343d"><path d="m1.253 62.6938c-.211.001-.398.08-.539.222-.141.143-.218.331-.21700962.531.00100962.202.08000962.389.22200962.53.142.14.325.247.531.217h.003c.413 0 .75-.336.75-.75s-.337-.75-.75-.75"/><path d="m27.0479 49.4409.138.728-2.524-.503c-.813-.165-1.406-.885-1.412-1.712v-3.404c.001-.832.595-1.553 1.411-1.714l2.525-.505-.138.728c-.399 2.117-.399 4.265 0 6.382zm-18.798-28.191c0-1.654 1.346-3 3-3h30c1.654 0 3 1.346 3 3v1.75h-.95c-1.539.006-2.88 1.107-3.185 2.617l-.651 3.255-.272.093c-.785.266-1.557.589-2.297.959l-.26.13-2.774-1.852c-1.283-.849-3.007-.677-4.1.408l-2.407 2.402c-1.084 1.092-1.254 2.819-.403 4.103l1.848 2.771-.13.259c-.37.739-.692 1.512-.959 2.296l-.093.273-3.259.651c-1.505.308-2.603 1.648-2.608 3.186v3.399c.006 1.539 1.107 2.88 2.617 3.185l3.255.652.093.273c.267.784.589 1.556.959 2.295l.13.26-1.852 2.774c-.848 1.283-.677 3.008.408 4.1l2.402 2.408c1.092 1.086 2.82 1.253 4.103.403l2.77-1.848.26.13c.741.37 1.513.693 2.296.958l.273.093.651 3.259c.308 1.506 1.649 2.603 3.187 2.608h.948v3.5h-36zm38.451 3.25c.832.002 1.553.596 1.713 1.411l.506 2.524-.728-.137c-2.118-.399-4.266-.399-6.383 0l-.729.137.505-2.523c.163-.812.883-1.406 1.711-1.412zm-17.078 11.925-1.424-2.134c-.463-.694-.371-1.627.22-2.218l.322-.323.007.005 2.081-2.081c.597-.585 1.498-.672 2.195-.217l2.139 1.427-.598.42c-1.767 1.236-3.288 2.757-4.522 4.522zm5.553 25.203-2.135 1.423c-.296.197-.635.293-.972.293-.452 0-.901-.172-1.238-.507l-2.406-2.405c-.588-.589-.679-1.518-.216-2.209l1.425-2.136.419.599c1.236 1.765 2.758 3.287 4.523 4.522zm26.574-15.378c0 9.236-7.514 16.75-16.75 16.75s-16.75-7.514-16.75-16.75 7.514-16.75 16.75-16.75c9.226.011 16.739 7.524 16.75 16.75zm-4.784-16.791c.691-.46 1.621-.369 2.211.212l2.404 2.407c.588.59.679 1.519.215 2.211l-1.424 2.135-.42-.6c-1.234-1.765-2.756-3.286-4.521-4.522l-.599-.419zm4.83 28.756c.459.691.37 1.621-.213 2.21l-.002.002-2.402 2.404c-.339.335-.789.508-1.241.508-.337 0-.675-.096-.969-.291l-2.138-1.425.6-.42c1.765-1.236 3.287-2.757 4.521-4.522l.42-.599zm-13.381 8.373c-.163.813-.883 1.407-1.712 1.412h-3.403-.001c-.832-.001-1.553-.595-1.713-1.411l-.506-2.523.729.137c2.117.397 4.265.397 6.383 0l.728-.137zm14.537-23.529-.137-.728 2.521.504c.815.163 1.408.883 1.414 1.711v3.404c-.001.833-.596 1.553-1.412 1.715l-2.523.505.137-.729c.4-2.117.4-4.265 0-6.382zm-60.952-32.559v-4.25c0-2.343 1.906-4.25 4.25-4.25h62.5c2.344 0 4.25 1.907 4.25 4.25v4.25zm4.251 64h62.499c3.167-.003 5.746-2.583 5.75-5.75v-62.5c-.004-3.166-2.583-5.746-5.751-5.75h-62.499c-3.167.004-5.746 2.584-5.75 5.751v52.499c0 .414.337.75.75.75s.75-.336.75-.75v-46.75h71v56.75c0 2.343-1.906 4.25-4.25 4.25h-23v-3.5h.95c1.539-.005 2.879-1.106 3.185-2.617l.651-3.255.274-.093c.779-.264 1.551-.587 2.296-.958l.259-.13 2.774 1.851c1.283.848 3.009.677 4.101-.408l2.407-2.402c1.085-1.091 1.255-2.818.404-4.103l-1.85-2.772.13-.259c.368-.733.691-1.505.959-2.295l.093-.272 3.26-.652c1.504-.308 2.601-1.648 2.607-3.187v-3.398c-.006-1.539-1.106-2.879-2.617-3.185l-3.255-.651-.093-.273c-.265-.783-.589-1.555-.959-2.295l-.13-.259 1.852-2.776c.849-1.282.678-3.007-.407-4.1l-2.403-2.408c-1.09-1.084-2.818-1.253-4.103-.402l-2.77 1.847-.259-.129c-.745-.372-1.517-.695-2.296-.959l-.274-.093-.651-3.254c-.307-1.508-1.647-2.608-3.187-2.613h-.948v-1.75c0-2.481-2.018-4.5-4.5-4.5h-30c-2.481 0-4.5 2.019-4.5 4.5v51.75h-.5c-2.344 0-4.25-1.907-4.25-4.25 0-.413-.337-.75-.75-.75s-.75.337-.75.75c.004 3.167 2.583 5.747 5.751 5.75z"/><path d="m69.5001 6.25c0-.414-.337-.75-.75-.75h-.5v-.5c0-.414-.337-.75-.75-.75s-.75.336-.75.75v.5h-.5c-.413 0-.75.336-.75.75s.337.75.75.75h.5v.5c0 .414.337.75.75.75s.75-.336.75-.75v-.5h.5c.413 0 .75-.336.75-.75"/><path d="m61.2501 5.5h-2.5c-.413 0-.75.336-.75.75s.337.75.75.75h2.5c.413 0 .75-.336.75-.75s-.337-.75-.75-.75"/><path d="m58.2501 46.2495c0-.413-.337-.75-.75-.75s-.75.337-.75.75c-.008 6.472-5.279 11.743-11.749 11.75-.414 0-.751.337-.751.75 0 .414.337.75.75.75 7.297-.008 13.241-5.952 13.25-13.25"/><path d="m45.0001 33c-7.297.008-13.241 5.953-13.25 13.25 0 .414.337.75.75.75s.75-.336.75-.75c.008-6.471 5.279-11.742 11.749-11.75.414 0 .751-.336.751-.75s-.337-.75-.75-.75"/><path d="m45.0001 50.5c-2.344 0-4.25-1.907-4.25-4.25s1.906-4.25 4.25-4.25 4.25 1.907 4.25 4.25-1.906 4.25-4.25 4.25m0-10c-3.167.004-5.746 2.583-5.75 5.75 0 3.171 2.58 5.75 5.75 5.75 3.171 0 5.75-2.58 5.75-5.75s-2.579-5.75-5.75-5.75"/><path d="m27.5001 23h-13.75c-.413 0-.75.336-.75.75s.337.75.75.75h13.75c.413 0 .75-.336.75-.75s-.337-.75-.75-.75"/><path d="m21.2501 33h-7.5c-.413 0-.75.336-.75.75s.337.75.75.75h7.5c.413 0 .75-.336.75-.75s-.337-.75-.75-.75"/><path d="m20.0001 38h-6.25c-.413 0-.75.336-.75.75s.337.75.75.75h6.25c.413 0 .75-.336.75-.75s-.337-.75-.75-.75"/><path d="m17.5001 43h-3.75c-.413 0-.75.336-.75.75s.337.75.75.75h3.75c.413 0 .75-.336.75-.75s-.337-.75-.75-.75"/><path d="m17.5001 48h-3.75c-.413 0-.75.336-.75.75s.337.75.75.75h3.75c.413 0 .75-.336.75-.75s-.337-.75-.75-.75"/><path d="m20.0001 53h-6.25c-.413 0-.75.336-.75.75s.337.75.75.75h6.25c.413 0 .75-.336.75-.75s-.337-.75-.75-.75"/><path d="m21.2501 58h-7.5c-.413 0-.75.336-.75.75s.337.75.75.75h7.5c.413 0 .75-.336.75-.75s-.337-.75-.75-.75"/><path d="m22.5001 63h-8.75c-.413 0-.75.336-.75.75s.337.75.75.75h8.75c.413 0 .75-.336.75-.75s-.337-.75-.75-.75"/><path d="m27.5001 68h-13.75c-.413 0-.75.336-.75.75s.337.75.75.75h13.75c.413 0 .75-.336.75-.75s-.337-.75-.75-.75"/><path d="m21.2501 28h-7.5c-.413 0-.75.336-.75.75s.337.75.75.75h7.5c.413 0 .75-.336.75-.75s-.337-.75-.75-.75"/></g></g></svg>