<svg height="51" viewBox="0 0 56 51" width="56" xmlns="http://www.w3.org/2000/svg"><g fill="none" stroke="#fff" stroke-width=".9" transform="translate(1 1.4)"><g fill="#00343d"><path d="m50.4829468 0h-46.96589356c-1.93897707 0-3.51705324 1.57219866-3.51705324 3.50395405v40.99209185c0 1.9320838 1.57807617 3.5039541 3.51705324 3.5039541h46.96589356c1.938977 0 3.5170532-1.5718703 3.5170532-3.5039541v-11.4168285c0-.5802162-.4719727-1.0507593-1.0546875-1.0507593s-1.0546875.4705431-1.0546875 1.0507593v11.4168285c0 .7732933-.6314941 1.4024354-1.4076782 1.4024354h-46.96589356c-.7761841 0-1.40767824-.6291421-1.40767824-1.4024354v-33.1724722h49.78125v9.7769873c0 .5805445.4719727 1.0507593 1.0546875 1.0507593s1.0546875-.4702148 1.0546875-1.0507593v-17.59660695c0-1.93175539-1.5780762-3.50395405-3.5170532-3.50395405zm-48.3735718 9.22205498v-5.71810093c0-.77329322.63149414-1.40243537 1.40767824-1.40243537h46.96589356c.7761841 0 1.4076782.62914215 1.4076782 1.40243537v5.71810093z"/><path d="m8.75653323 6.73170732h-.93154472c-.59359524 0-1.07498851-.45873482-1.07498851-1.02439025 0-.56597561.48139327-1.02439024 1.07498851-1.02439024h.93154472c.59359524 0 1.07498851.45841463 1.07498851 1.02439024 0 .56565543-.48139327 1.02439025-1.07498851 1.02439025z"/><path d="m13.8924028 6.73170732h-.9315447c-.5935953 0-1.0749885-.45873482-1.0749885-1.02439025 0-.56597561.4813932-1.02439024 1.0749885-1.02439024h.9315447c.5939311 0 1.0749885.45841463 1.0749885 1.02439024 0 .56565543-.4810574 1.02439025-1.0749885 1.02439025z"/><path d="m19.0283896 6.73170732h-.9317792c-.5931945 0-1.0748713-.45873482-1.0748713-1.02439025 0-.56597561.4816768-1.02439024 1.0748713-1.02439024h.9317792c.5935305 0 1.0748713.45841463 1.0748713 1.02439024 0 .56565543-.4813408 1.02439025-1.0748713 1.02439025z"/><path d="m41.9377554 6.73170732h-17.4026848c-.5835571 0-1.0568097-.45873482-1.0568097-1.02439025 0-.56597561.4732526-1.02439024 1.0568097-1.02439024h17.4026848c.5838874 0 1.0568098.45841463 1.0568098 1.02439024 0 .56565543-.4729224 1.02439025-1.0568098 1.02439025z"/><path d="m46.2228261 6.73170732c-.0677293 0-.1344956-.00736053-.2015829-.02080141-.0658033-.01312096-.1303226-.03232219-.1916321-.05792395-.0619514-.02560175-.1216559-.05760403-.1778295-.09440649-.0558526-.03680255-.1078533-.08000553-.156002-.12704877-.0475068-.04704317-.0895568-.10016685-.1277547-.15585063-.0369141-.05600386-.0686923-.11552798-.0943717-.17697219-.0256793-.06144422-.0452598-.12576861-.0584205-.19137308-.0134817-.06656457-.0195805-.13344913-.0195805-.19969369 0-.06752465.0060988-.13440922.0195805-.20097378.0131607-.06560448.0327412-.12896887.0584205-.19137317.0256794-.06144421.0574576-.12096825.0943717-.17601202.0381979-.05664387.0802479-.10848746.1277547-.15681079.0481487-.04704317.1001494-.08896606.156002-.12704869.0561736-.03680255.1158781-.06816466.1778295-.09376641.0613095-.02560176.1258288-.04544316.1916321-.05856404.1328907-.02688184.2693122-.02688184.4015608 0 .0661243.01312088.1306437.03296228.1922742.05856404.0619514.02560175.1222978.05696386.1778294.09376641.0564946.03808263.1088163.08000552.1560021.12704869.0475068.04832333.0901987.10016692.1274337.15681079.0372351.05504377.0686923.11456781.0943717.17601202.0256793.0624043.0455808.12576869.0587414.19137317.0131607.06656456.0205435.13344913.0205435.20097378 0 .06624456-.0073828.13312912-.0205435.19969369-.0131606.06560447-.0330621.12992886-.0587414.19137308-.0256794.06144421-.0571366.12096833-.0943717.17697219-.037235.05568378-.0799269.10880746-.1274337.15585063-.0471858.04704324-.1004705.09024622-.1560021.12704877-.0564946.03680246-.115878.06880474-.1778294.09440649-.0616305.02560176-.1261499.04480299-.1922742.05792395-.0664453.01344088-.1335326.02080141-.1999779.02080141z"/><path d="m52.9728261 28.2439024c-.0667663 0-.1344956-.0070457-.2002989-.0201763-.0658033-.013451-.1303228-.0329868-.1919532-.0586076-.0629143-.0256207-.1226188-.0573264-.1778294-.0941562-.0564946-.0368299-.1088163-.080065-.1560021-.1271431-.0475067-.0467579-.0905197-.0992804-.1274338-.1556461-.037235-.0554049-.0690131-.1149732-.0946925-.1774239-.0256793-.0611695-.0462228-.1261822-.0584205-.1915151-.0134817-.0656532-.0205435-.133228-.0205435-.2001622 0-.0662938.0070618-.1338686.0205435-.1995218.0121977-.0656532.0327412-.1303456.0584205-.1915151.0256794-.0624507.0574575-.122019.0946925-.1774239.0369141-.0563657.0799271-.1088882.1274338-.1556461.0471858-.0470782.0995075-.0903132.1560021-.1281038.0552106-.0358691.1149151-.0675748.1768665-.0931956.0625933-.0256207.1271128-.0461173.1929161-.0586075.1325696-.0265815.2693122-.0265815.4005978 0 .0658033.0124902.1303227.0329868.1919532.0586075.0629143.0256208.1226188.0573265.1778294.0931956.0564946.0377906.1088163.0810256.1560021.1281038.191311.1905544.3010903.4547685.3010903.7241069 0 .0669342-.0060989.134509-.0195805.2001622-.0131607.0656531-.0337042.1303456-.0593835.1915151-.0256794.0624507-.0574575.122019-.0946926.1774239-.0369141.0563657-.079927.1082477-.1274337.1556461-.0471858.0470781-.0995075.0903132-.1560021.1271431-.0552106.0368298-.1149151.0685355-.1778294.0941562-.0616305.0256208-.1261499.0451566-.1919532.0586076-.0658033.0131306-.1335326.0201763-.2002989.0201763z"/></g><path d="m16.5552989 41.2682927c-.9088168 0-1.7629133-.3539053-2.4050516-.9961414l-7.87113765-7.8679677c-.64246783-.642236-.99650095-1.4960243-.99650095-2.4045131 0-.9078298.35403312-1.7616181.99650095-2.4038541l7.87113765-7.8682972c.6424679-.6422361 1.4962348-.9958119 2.4050516-.9958119.9084872 0 1.7625837.3535758 2.4050515.9961414.6421383.6415769.9958417 1.4956947.9958417 2.4038541 0 .9081592-.3537034 1.7616181-.9958417 2.4041836l-5.4664157 5.4637841 5.4664157 5.4644431c.6421383.642236.9961713 1.4960244.9961713 2.4041836 0 .9081594-.354033 1.7616182-.9961713 2.4038541-.6424678.6422361-1.4965643.9961414-2.4050515.9961414zm0-20.4276524c-.3451328 0-.6691687.1344445-.9131021.3782899l-7.87146735 7.8679677c-.2439334.2438454-.37842642.5680938-.37842642.9127726 0 .3453378.13449302.6695862.37842642.9127725l7.87146735 7.8686268c.2439334.2438454.5676396.3782899.9131021.3782899.3448032 0 .6691687-.1344445.9131021-.3782899s.3780968-.5680938.3780968-.9127726c0-.3446787-.1341634-.6689271-.3780968-.9127725l-6.2127202-6.2098191c-.1977839-.1980421-.3085428-.466272-.3085428-.7460351 0-.2791041.1107589-.547334.3085428-.7453761l6.2127202-6.2098191c.2439334-.2438454.3780968-.5680938.3780968-.9127725 0-.3446788-.1341634-.6689272-.3780968-.9127726s-.5682989-.3782899-.9131021-.3782899z" fill="#0bd8a2"/><path d="m37.4444479 41.2682927c-.9085076 0-1.7626233-.3539053-2.4044463-.9961414-.6424823-.6422359-.9965233-1.4956947-.9965233-2.4038541 0-.9081592.354041-1.7619476.9965233-2.4041836l5.466209-5.4644431-5.466209-5.4637841c-.6424823-.642236-.9965233-1.4963539-.9965233-2.4041836 0-.9081594.354041-1.7622772.9965233-2.4041836.6421526-.6422361 1.496598-.9958119 2.4044463-.9958119.9088372 0 1.7629529.3535758 2.4054352.9958119l7.8709849 7.8682972c.6424822.642236.9965233 1.4960243.9965233 2.4038541 0 .9084888-.3540411 1.7622771-.9965233 2.4045131l-7.8709849 7.8679677c-.6424823.6422361-1.496598.9961414-2.4054352.9961414zm0-20.4276524c-.3448109 0-.6691837.1344445-.9131226.3782899s-.3781053.5680938-.3781053.9127726c0 .3446787.1341664.6689271.3781053.9127725l6.2128597 6.2098191c.1977883.1980421.3085498.466272.3085498.7453761 0 .2797631-.1107615.547993-.3085498.7460351l-6.2128597 6.2098191c-.2439389.2438454-.3781053.5680938-.3781053.9127725 0 .3446788.1341664.6689272.3781053.9127726s.5683117.3782899.9131226.3782899c.3454702 0 .6691837-.1344445.9131226-.3782899l7.8716442-7.8686268c.2439388-.2431863.3784349-.5674347.3784349-.9127725 0-.3446788-.1344961-.6689272-.3784349-.9127726l-7.870985-7.8679677c-.2445981-.2438454-.5686413-.3782899-.9137818-.3782899z" fill="#0bd8a2"/><path d="m25.5401089 40.8292683c-.2522533 0-.5054893-.029009-.7528285-.0857085-1.8172062-.4166749-2.9588978-2.2432536-2.5448094-4.0718104l3.3634858-14.854592c.4137609-1.8288863 2.2290015-2.9777091 4.0462077-2.5610342.8799379.2020741 1.629818.736763 2.1107371 1.5058314.480264.7687388.6345643 1.6802152.4340722 2.5656494l-3.3631582 14.8552513c-.3531545 1.5579157-1.7074597 2.646413-3.2937067 2.646413zm3.3611926-19.5481183c-.5857516 0-1.1158111.4064558-1.2511106 1.004437l-3.3634858 14.8549217c-.1569212.6942384.2761682 1.3878175.9664247 1.5460485.0950045.0217567.1913194.0329648.2869791.0329648.5919761 0 1.1174491-.4229383 1.2494726-1.0054261l3.3631582-14.8549215c.0760036-.3362409.0176905-.6823711-.1647836-.9741095-.1824742-.292068-.4671599-.4948014-.8013136-.5716094-.0959873-.0220864-.1913193-.0323055-.285341-.0323055z" fill="#0bd8a2"/></g></svg>