<svg height="51" viewBox="0 0 51 51" width="51" xmlns="http://www.w3.org/2000/svg"><g fill="none" fill-rule="evenodd" transform="translate(1 1.2)"><ellipse cx="24.272565" cy="24" rx="24.203226" ry="24" stroke="#0ed8a3" stroke-width="1.584"/><path d="m21.2217266 18.8662382.0237833.0245427 1.9940593 2.0577248-1.4843279 1.531719-1.9719377-2.0577249c-1.1813763-1.2627143-3.1310885-1.2980814-4.3547347-.0789866-.0259644.0258287-.0515132.0521933-.0765428.0789866l-1.9940594 2.0577249c-.590013.602206-.9110358 1.4303331-.8862139 2.2863252-.0274183.856528.2940199 1.6857268.8862139 2.2863253l1.9940594 2.0577249c1.1813763 1.2627143 3.1310885 1.2980814 4.3547347.0789866.0259643-.0258287.0515132-.0521933.0765428-.0789866l7.8654216-8.0479549 1.9940593-2.0577249c.9745965-1.0224321 2.3103047-1.5919503 3.7001225-1.5775891 1.3749662-.0046084 2.6933302.5643739 3.6557754 1.5775891l1.9940593 2.0577249c2.0252165 2.0350041 2.0683173 5.3788071.0962757 7.4685767-.0316765.0335452-.0637684.0666617-.0962757.0993495h-.0664686l-1.9940593 2.0805528c-2.042353 2.0682278-5.313545 2.0682278-7.3558979 0l-1.9940593-2.0805528 1.5287788-1.5547612 1.9940593 2.0577249c1.2163762 1.2627143 3.1943376 1.2688232 4.4179838.013611.0044659-.0045013.0088279-.0091097.0131899-.013611l1.9940593-2.0577249c.5749538-.6124946.8932763-1.4337626.886214-2.2863252.0022848-.8517052-.3153107-1.6712584-.886214-2.2863252l-1.9940593-2.034897c-.5912594-.5995268-1.3867021-.9360505-2.2155869-.9374438-.827223-.0122177-1.6248467.3170183-2.2155868.9145087l-1.772428 1.8062966-8.0870529 8.3452533c-.9675342 1.0027122-2.2845481 1.5627992-3.6557754 1.5547612-1.3851443.0126464-2.717529-.5472262-3.7001225-1.5547612l-1.9940593-2.0805528c-2.01358451-2.0946996-2.01358451-5.4731194 0-7.5678191l1.9940593-2.0577248c2.0181542-2.0960929 5.3007705-2.1071317 7.3320107-.0245427z" fill="#00343d"/></g></svg>