<svg fill="none" height="90" viewBox="0 0 90 90" width="90" xmlns="http://www.w3.org/2000/svg" xmlns:xlink="http://www.w3.org/1999/xlink"><mask id="a" height="6" maskUnits="userSpaceOnUse" width="6" x="37" y="39"><path clip-rule="evenodd" d="m39.679 39.8c-1.073 0-1.94.873-1.94 1.95v1.3c0 1.078.867 1.95 1.94 1.95h1.292c1.072 0 1.939-.872 1.939-1.95v-1.3c0-1.077-.867-1.95-1.939-1.95z" fill="#fff" fill-rule="evenodd"/></mask><mask id="b" height="8" maskUnits="userSpaceOnUse" width="7" x="9" y="8"><path clip-rule="evenodd" d="m9.29401 11.85c0 1.796 1.44799 3.251 3.23199 3.251 1.785 0 3.233-1.455 3.233-3.251 0-1.795-1.448-3.24999-3.233-3.24999-1.784 0-3.23199 1.45499-3.23199 3.24999z" fill="#fff" fill-rule="evenodd"/></mask><mask id="c" height="8" maskUnits="userSpaceOnUse" width="7" x="66" y="8"><path clip-rule="evenodd" d="m66.182 11.85c0 1.796 1.448 3.251 3.233 3.251 1.786 0 3.232-1.455 3.232-3.251 0-1.795-1.446-3.24999-3.232-3.24999-1.785 0-3.233 1.45499-3.233 3.24999z" fill="#fff" fill-rule="evenodd"/></mask><mask id="d" height="9" maskUnits="userSpaceOnUse" width="9" x="36" y="7"><path clip-rule="evenodd" d="m38.385 7.30002c-1.071 0-1.94.874-1.94 1.95v3.90098c0 1.077.869 1.95 1.94 1.95h3.879c1.071 0 1.938-.873 1.938-1.95v-3.90098c0-1.076-.867-1.95-1.938-1.95z" fill="#fff" fill-rule="evenodd"/></mask><mask id="e" height="44" maskUnits="userSpaceOnUse" width="14" x="68" y="28"><path clip-rule="evenodd" d="m69.065 28.1h-.012c-.096.001-.191.01-.284.026v5.461l6.063 12.87.777 1.651 2.028 4.302c.12.262.18.545.182.832v5.474c-.004.382-.116.757-.324 1.079l-4.526 6.811c-.206.322-.318.696-.322 1.079v3.965h3.88v-3.965c.003-.383.115-.757.322-1.079l4.525-6.811c.208-.322.321-.697.322-1.079v-5.474c0-.287-.062-.57-.179-.832l-2.03-4.302-.776-1.651-8.223-17.446c-.257-.556-.809-.911-1.418-.911-.002 0-.004 0-.005 0z" fill="#fff" fill-rule="evenodd"/></mask><mask id="f" height="44" maskUnits="userSpaceOnUse" width="25" x="53" y="28"><path clip-rule="evenodd" d="m64.89 28.464c-.183.146-.329.334-.426.547l-2.16 4.576-8.869 18.823c-.118.262-.18.545-.182.832v5.474c.004.382.116.757.322 1.079l2.767 4.159 1.281 1.937.478.715c.208.322.32.696.324 1.079v3.965h14.222v-3.965c.004-.383.116-.757.322-1.079l4.526-6.811c.208-.322.32-.697.324-1.079v-5.474c-.002-.287-.062-.57-.182-.832l-2.028-4.302-.777-1.651-6.063-12.87v14.247c.61.202 1.155.566 1.576 1.054.649.713 1.01 1.646 1.01 2.612 0 2.153-1.738 3.9-3.879 3.9s-3.88-1.747-3.88-3.9c-.005-1.392.737-2.677 1.94-3.367.205-.121.423-.22.646-.299v-19.37c-.185-.161-.406-.272-.646-.324-.238.052-.461.163-.646.324z" fill="#fff" fill-rule="evenodd"/></mask><mask id="g" height="7" maskUnits="userSpaceOnUse" width="21" x="57" y="71"><path clip-rule="evenodd" d="m59.071 71c-1.187.136-2.047 1.202-1.94 2.398v3.994h20.688v-3.994c.109-1.196-.752-2.262-1.94-2.398z" fill="#fff" fill-rule="evenodd"/></mask><mask id="h" height="7" maskUnits="userSpaceOnUse" width="17" x="57" y="71"><path clip-rule="evenodd" d="m58.708 71c-.872 0-1.577 1.071-1.577 2.398v3.994h16.81v-3.994c0-1.327-.705-2.398-1.577-2.398z" fill="#fff" fill-rule="evenodd"/></mask><mask id="i" height="7" maskUnits="userSpaceOnUse" width="21" x="57" y="76"><path clip-rule="evenodd" d="m57.131 76.2v4.551c0 1.075.869 1.95 1.94 1.95h16.808c1.071 0 1.94-.875 1.94-1.95v-4.551z" fill="#fff" fill-rule="evenodd"/></mask><mask id="j" height="7" maskUnits="userSpaceOnUse" width="17" x="57" y="76"><path clip-rule="evenodd" d="m57.131 76.2v4.551c-.091.973.611 1.841 1.577 1.95h13.656c.966-.109 1.667-.977 1.577-1.95v-4.551z" fill="#fff" fill-rule="evenodd"/></mask><mask id="k" height="15" maskUnits="userSpaceOnUse" width="7" x="68" y="34"><path clip-rule="evenodd" d="m68.769 47.834c.583.188 1.105.529 1.511.989.182-.066.375-.118.57-.17 1.317-.619 2.69-1.116 4.098-1.482l-6.179-13.118z" fill="#fff" fill-rule="evenodd"/></mask><mask id="l" height="1" maskUnits="userSpaceOnUse" width="1" x="69" y="28"><path clip-rule="evenodd" d="m69.593 28.204c-.042-.019-.085-.034-.129-.047.044.013.087.028.129.047z" fill="#fff" fill-rule="evenodd"/></mask><mask id="m" height="1" maskUnits="userSpaceOnUse" width="2" x="68" y="28"><path clip-rule="evenodd" d="m69.053 28.1c-.096.001-.191.01-.284.026v.338c.18-.155.393-.264.623-.317-.106-.027-.217-.044-.327-.047z" fill="#fff" fill-rule="evenodd"/></mask><mask id="n" height="1" maskUnits="userSpaceOnUse" width="1" x="69" y="28"><path clip-rule="evenodd" d="m69.991 28.417c-.05-.037-.101-.072-.153-.104.052.032.103.067.153.104z" fill="#fff" fill-rule="evenodd"/></mask><mask id="o" height="55" maskUnits="userSpaceOnUse" width="14" x="53" y="28"><path clip-rule="evenodd" d="m64.89 28.464c-.183.146-.329.334-.426.545l-2.16 4.578-8.869 18.823c-.118.262-.18.545-.182.832v5.474c.004.382.116.757.322 1.079l2.767 4.159 1.281 1.937.478.715c.208.322.32.696.324 1.079v3.359c-.883.429-1.401 1.373-1.294 2.354v7.353c-.091.973.611 1.841 1.577 1.95h3.878c-.965-.109-1.668-.977-1.576-1.95v-7.353c-.107-.981.41-1.925 1.294-2.354v-3.359c-.005-.383-.117-.757-.324-1.079l-.478-.715-1.28-1.937-2.767-4.159c-.208-.322-.319-.697-.324-1.079v-5.474c.003-.287.064-.57.183-.832l8.868-18.823v-5.123c-.185-.161-.406-.274-.646-.324-.238.05-.461.163-.646.324z" fill="#fff" fill-rule="evenodd"/></mask><mask id="p" height="8" maskUnits="userSpaceOnUse" width="6" x="66" y="8"><path clip-rule="evenodd" d="m67.531 9.19601c-1.154.81899-1.644 2.29499-1.213 3.64799.433 1.35 1.686 2.265 3.097 2.257.702-.004 1.383-.236 1.94-.665-.814-.607-1.294-1.567-1.294-2.586 0-1.018.48-1.97799 1.294-2.58599-.579-.441-1.268-.664-1.96-.664-.652 0-1.305.198-1.864.596z" fill="#fff" fill-rule="evenodd"/></mask><mask id="q" height="9" maskUnits="userSpaceOnUse" width="7" x="36" y="7"><path clip-rule="evenodd" d="m38.385 7.30002c-1.071 0-1.94.874-1.94 1.95v3.90098c0 .516.205 1.012.567 1.377.364.368.858.573 1.373.573h3.879c-1.072 0-1.939-.873-1.939-1.95v-3.90098c0-1.076.867-1.95 1.939-1.95z" fill="#fff" fill-rule="evenodd"/></mask><mask id="r" height="8" maskUnits="userSpaceOnUse" width="6" x="9" y="8"><path clip-rule="evenodd" d="m10.641 9.19601c-1.15197.81899-1.64197 2.29499-1.21097 3.64799.431 1.35 1.68497 2.265 3.09597 2.257.701-.004 1.382-.236 1.939-.665-.813-.607-1.293-1.567-1.293-2.586 0-1.018.48-1.97799 1.293-2.58599-.577-.441-1.268-.664-1.959-.664-.652 0-1.304.198-1.865.596z" fill="#fff" fill-rule="evenodd"/></mask><g mask="url(#a)"><path clip-rule="evenodd" d="m32.738 50h15.172v-15.2h-15.172z" fill="#0bd8a2" fill-rule="evenodd"/></g><g mask="url(#b)"><path clip-rule="evenodd" d="m4.29401 20.1h16.46499v-16.49999h-16.46499z" fill="#fff" fill-rule="evenodd"/></g><g mask="url(#c)"><path clip-rule="evenodd" d="m61.182 20.1h16.466v-16.49999h-16.466z" fill="#0bd8a2" fill-rule="evenodd"/></g><g mask="url(#d)"><path clip-rule="evenodd" d="m31.445 20.1h17.757v-17.79998h-17.757z" fill="#0bd8a2" fill-rule="evenodd"/></g><g mask="url(#e)"><path clip-rule="evenodd" d="m63.769 76.65h22.929v-53.55h-22.929z" fill="#0bd8a2" fill-rule="evenodd"/></g><g mask="url(#f)"><path clip-rule="evenodd" d="m48.253 76.65h34.565v-53.511h-34.565z" fill="#0bd8a2" fill-rule="evenodd"/></g><g mask="url(#g)"><path clip-rule="evenodd" d="m52.123 82.392h30.705v-16.392h-30.705z" fill="#0bd8a2" fill-rule="evenodd"/></g><g mask="url(#h)"><path clip-rule="evenodd" d="m52.132 82.392h26.809v-16.392h-26.809z" fill="#0bd8a2" fill-rule="evenodd"/></g><g mask="url(#i)"><path clip-rule="evenodd" d="m52.132 87.7h30.687v-16.5h-30.687z" fill="#0bd8a2" fill-rule="evenodd"/></g><g mask="url(#j)"><path clip-rule="evenodd" d="m52.124 87.7h26.824v-16.5h-26.824z" fill="#0bd8a2" fill-rule="evenodd"/></g><g mask="url(#k)"><path clip-rule="evenodd" d="m63.769 53.823h16.18v-24.769h-16.18z" fill="#0bd8a2" fill-rule="evenodd"/></g><g mask="url(#l)"><path clip-rule="evenodd" d="m64.464 33.203h10.129v-10.046h-10.129z" fill="#fff" fill-rule="evenodd"/></g><g mask="url(#m)"><path clip-rule="evenodd" d="m63.769 33.464h10.624v-10.364h-10.624z" fill="#fff" fill-rule="evenodd"/></g><g mask="url(#n)"><path clip-rule="evenodd" d="m64.839 33.416h10.151v-10.103h-10.151z" fill="#fff" fill-rule="evenodd"/></g><g mask="url(#o)"><path clip-rule="evenodd" d="m48.253 87.7h22.93v-64.561h-22.93z" fill="#fff" fill-rule="evenodd"/></g><g mask="url(#p)"><path clip-rule="evenodd" d="m61.163 20.1h15.191v-16.49999h-15.191z" fill="#fff" fill-rule="evenodd"/></g><g mask="url(#q)"><path clip-rule="evenodd" d="m31.445 20.1h15.818v-17.79998h-15.818z" fill="#fff" fill-rule="evenodd"/></g><g mask="url(#r)"><path clip-rule="evenodd" d="m4.27405 20.1h15.18995v-16.49999h-15.18995z" fill="#fff" fill-rule="evenodd"/></g><g clip-rule="evenodd" fill="#00343d" fill-rule="evenodd"><path d="m43.4102 13.1499c0 .634-.515 1.15-1.146 1.15h-3.879c-.632 0-1.147-.516-1.147-1.15v-3.89999c0-.634.515-1.15 1.147-1.15h3.879c.631 0 1.146.516 1.146 1.15zm-30.885 1.15c-1.344 0-2.438-1.099-2.438-2.45 0-1.35 1.094-2.44999 2.438-2.44999 1.345 0 2.44 1.09999 2.44 2.44999 0 1.351-1.095 2.45-2.44 2.45zm56.89-4.89999c1.345 0 2.439 1.09999 2.439 2.44999 0 1.351-1.094 2.45-2.439 2.45s-2.44-1.099-2.44-2.45c0-1.35 1.095-2.44999 2.44-2.44999zm-20.387 3.89299c.203.048.4.107.593.175l.226.069c.044.023.092.041.14.054h.002l.161.06c.315.098.617.207.949.34.243.095.445.175.729.299.122.042.276.108.435.176.316.138.592.259.934.436.602.269 1.223.588 1.821.938.234.114.489.263.734.428.334.188.689.411 1.065.671l.162.097c.222.133.44.279.649.436.077.069.107.095.14.117l.099.075c.406.278.769.551 1.106.835.357.267.712.561 1.129.935.334.264.663.572.964.862l.12.119c.328.306.645.625 1.003 1.024.315.316.634.663.943 1.034.135.164.326.264.537.283.212.02.415-.045.578-.182.338-.283.383-.789.101-1.13-.339-.407-.691-.788-1.005-1.106-.347-.386-.692-.738-1.073-1.093l-.082-.082c-.301-.291-.703-.671-1.058-.95-.435-.39-.828-.716-1.166-.963-.377-.315-.75-.597-1.136-.857l-.083-.065c-.32-.25-.606-.445-.901-.622l-.119-.07c-.42-.289-.812-.533-1.128-.71-.292-.196-.555-.349-.817-.479-.629-.368-1.254-.689-1.889-.971-.342-.179-.654-.317-.986-.461l-2.013-1.015h14.499l.063.428c.285 1.973 1.994 3.464 3.974 3.469h.009c1.977 0 3.688-1.482 3.982-3.45.294-1.971-.914-3.89499-2.81-4.47599-1.893-.577-3.963.341-4.81 2.14199l-.135.287h-20.668v-1.14999c0-1.516-1.226-2.75-2.732-2.75h-3.879c-1.507 0-2.733 1.234-2.733 2.75v1.14999h-19.372l-.136-.285c-.85-1.79399-2.92-2.70699-4.801-2.12499-1.889.582-3.092 2.50299-2.798 4.46899.294 1.963 2.001 3.441 3.972 3.441h.007c1.981-.005 3.686-1.497 3.966-3.47l.062-.43h13.562l-2.238.96c-6.16 2.64-11.258 7.075-14.743 12.825l-.827 1.453c-.585 1.107-1.116 2.256-1.577 3.419l-.611 1.677c-.201.605-.366 1.199-.53 1.791l-.137.551.012.001-.028.202-.032-.006-.424 2.042-.044.246-.159 1.102c-.11.849-.188 1.772-.24 2.812-.042.839-.041 1.723.001 2.784l.03.452c.053.796.107 1.618.223 2.388.507 3.768 1.668 7.371 3.451 10.715l1.007 1.791 1.127 1.684c.301.449.635.867.989 1.311.196.246.394.493.584.745.38.466.804.92 1.227 1.372l.495.534c.391.399.816.789 1.241 1.18.212.195.423.39.632.587l1.471 1.18c.12.098.262.158.413.177.232-.002.523-.115.68-.331s.197-.497.104-.75c-.062-.184-.142-.299-.247-.384l-1.379-1.097c-.248-.233-.463-.431-.679-.629-.378-.349-.757-.698-1.117-1.065-.213-.237-.413-.453-.614-.669-.352-.377-.703-.755-1.029-1.151-.188-.251-.371-.479-.553-.707-.318-.396-.645-.806-.938-1.246l-1.055-1.58-.959-1.69c-1.7-3.192-2.802-6.617-3.281-10.19-.105-.706-.151-1.376-.201-2.085l-.039-.544c-.041-1.026-.041-1.918 0-2.743.045-.948.119-1.824.228-2.677l.519-2.83.252-1.054c.16-.584.32-1.152.494-1.678l.629-1.725c.322-.863.772-1.765 1.209-2.638l.454-.89c.002-.003.124-.231.169-.306l.424-.71c4.529-7.445 12.024-12.598 20.565-14.142l.589-.106v.792c0 1.516 1.226 2.75 2.733 2.75h3.879c1.506 0 2.732-1.234 2.732-2.75v-.754l.565.074c.088.012.174.029.26.049.08.02.159.033.238.043.243.037.464.084.683.143l.165.04c.031.008.064.013.098.016l.251.056c.035.011.071.021.108.029.224.038.456.097.682.174.03.01.07.02.111.026.265.051.466.106.661.179l.098.035c.037.013.074.023.112.033z"/><path d="m38.5303 41.7505c0-.635.515-1.151 1.147-1.151h1.293c.632 0 1.146.516 1.146 1.151v1.299c0 .635-.514 1.15-1.146 1.15h-1.293c-.632 0-1.147-.515-1.147-1.15zm-1.585 1.299c0 1.517 1.226 2.751 2.732 2.751h1.293c1.506 0 2.732-1.234 2.732-2.751v-1.299c0-.736-.284-1.427-.801-1.946-.508-.511-1.212-.804-1.931-.804h-1.293c-.729 0-1.415.285-1.931.804-.517.52-.801 1.211-.801 1.946z"/><path d="m80.9044 58.71c0 .227-.066.446-.191.635l-4.526 6.82c-.298.452-.455.98-.455 1.525v2.51h-16.515v-2.51c0-.546-.159-1.074-.459-1.526l-4.526-6.816c-.127-.201-.189-.421-.186-.646v-5.464c0-.168.038-.337.11-.49l11.022-23.4c.153-.32.52-.483.888-.4.369.083.616.38.616.737v17.187l-.374.097c-2.272.59-3.763 2.801-3.467 5.143.295 2.342 2.288 4.108 4.634 4.108s4.338-1.766 4.634-4.108-1.194-4.553-3.467-5.143l-.374-.097v-17.186c.051-.4.301-.671.625-.743.334-.069.669.072.848.351l11.052 23.457c.071.148.109.315.111.481zm-3.878 16.69h-19.101v-2.45c0-.635.514-1.15 1.146-1.15h16.808c.632 0 1.147.515 1.147 1.15zm0 5.351c0 .633-.515 1.149-1.147 1.149h-16.808c-.632 0-1.146-.516-1.146-1.149v-3.751h19.101zm-9.551-32.351c1.701 0 3.086 1.391 3.086 3.101 0 1.709-1.385 3.099-3.086 3.099s-3.086-1.39-3.086-3.099c0-1.71 1.385-3.101 3.086-3.101zm15.015 4.838c-.001-.404-.092-.812-.265-1.178l-11.02-23.4c-.394-.825-1.238-1.36-2.149-1.36h-.003-.001c-.461 0-.911.137-1.299.396l-.278.185-.277-.185c-.392-.261-.847-.396-1.308-.396-.213 0-.426.029-.635.087-.663.185-1.212.651-1.508 1.277l-11.023 23.399c-.173.366-.263.773-.263 1.175v5.472c0 .545.159 1.074.459 1.527l4.525 6.816c.126.189.193.411.191.641v2.924l-.2.15c-.683.511-1.094 1.327-1.097 2.184v7.799c0 1.516 1.225 2.749 2.732 2.749h16.808c1.506 0 2.733-1.233 2.733-2.749v-7.801c-.003-.855-.411-1.672-1.094-2.182l-.2-.151v-2.927c0-.228.067-.448.194-.638l4.524-6.817c.298-.451.455-.979.454-1.524z"/><path d="m29.8389 71.7368c-.072.2-.062.429.032.625.093.196.264.348.467.418.549.174 1.114.332 1.678.489l.884.25 2.588.51c.398.064.813.117 1.127.144.219.036.391.054.569.071l.222.022c.451.04.906.08 1.345.093 1.125.058 2.176.053 3.271 0 .886-.054 1.725-.137 2.485-.246.293-.03.554-.07.831-.115.474-.079.953-.16 1.396-.255.363-.071.706-.139 1.046-.235.358-.077.681-.159.982-.249l.222-.064c.364-.103.719-.204 1.013-.314.56-.165 1.076-.345 1.572-.547.518-.195 1.023-.398 1.518-.627.258-.118.435-.369.461-.653.026-.283-.102-.563-.332-.728-.231-.165-.532-.193-.788-.074-.461.212-.919.4-1.419.585-.385.153-.871.338-1.487.518-.332.123-.695.224-1.097.336l-.124.034c-.258.081-.548.152-.836.213l-.105.026c-.299.084-.602.144-.954.213-.408.092-.829.163-1.244.233l-.127.021c-.218.035-.44.07-.722.099-.733.105-1.518.184-2.382.237-1.087.052-2.074.051-3.111 0-.397-.011-.792-.046-1.164-.078l-.322-.032c-.13-.012-.257-.024-.487-.061-.351-.032-.736-.082-1.119-.144l-2.498-.503c-.294-.085-.588-.167-.883-.25-.505-.14-1.01-.281-1.509-.439-.086-.028-.173-.042-.258-.042-.324 0-.622.199-.741.519z"/><path d="m45.0782 71.917v-.001h-.001z"/><path d="m26.5421 70.3223c.081-.179.096-.404.031-.614-.025-.066-.078-.152-.146-.225-.165-.206-.387-.313-.614-.313-.066 0-.133.009-.2.028-.085.029-.182.081-.269.15-.092.071-.163.152-.22.245-.101.176-.129.394-.073.602.064.192.217.376.42.489l.003.001c.186.105.409.128.616.059l.173-.086c.005-.004.038-.029.066-.058l.113-.105c.038-.056.07-.113.1-.173z"/></g></svg>