<svg height="51" viewBox="0 0 51 51" width="51" xmlns="http://www.w3.org/2000/svg"><g fill="none" transform="translate(.2 .8)"><path d="m4.41468198 14.2016052h2.04874883c.39751284 0 .71995234-.3224395.71995234-.7199524 0-.3978882-.3224395-.7203278-.71995234-.7203278h-2.04874883c-.39788818 0-.72032778.3224396-.72032778.7203278 0 .3975129.3224396.7199524.72032778.7199524z" fill="#0bd8a2"/><path d="m21.2577393 12.761325h-12.50007021c-.39751284 0-.71995244.3224396-.71995244.7203278 0 .3975129.3224396.7199524.71995244.7199524h12.50007021c.3978881 0 .7203277-.3224395.7203277-.7199524 0-.3978882-.3224396-.7203278-.7203277-.7203278z" fill="#0bd8a2"/><path d="m19.359137 16.4113861h-4.5712098c-.3978881 0-.7203277.3220642-.7203277.7199524s.3224396.7199524.7203277.7199524h4.5712098c.3975128 0 .7199524-.3220642.7199524-.7199524s-.3224396-.7199524-.7199524-.7199524z" fill="#0bd8a2"/><path d="m12.3968444 16.4113861h-1.42489c-.3975128 0-.7199524.3220642-.7199524.7199524s.3224396.7199524.7199524.7199524h1.42489c.3978883 0 .7203278-.3220642.7203278-.7199524s-.3224395-.7199524-.7203278-.7199524z" fill="#0bd8a2"/><path d="m8.67884214 16.4113861h-4.26416016c-.39788818 0-.72032778.3220642-.72032778.7199524s.3224396.7199524.72032778.7199524h4.26416016c.39751284 0 .71995244-.3220642.71995244-.7199524s-.3224396-.7199524-.71995244-.7199524z" fill="#0bd8a2"/><path d="m49.1451966 3.16921694c0-1.74732973-1.4215119-3.16921694-3.1688416-3.16921694h-6.1432434c-.3978883 0-.7199524.3224396-.7199524.71995244 0 .39788809.3220641.72032769.7199524.72032769h6.1432434c.9534302 0 1.7289367.77550664 1.7289367 1.72893681v5.18530879h-46.26501157v-5.18530879c0-.95343017.77550664-1.72893681 1.72893681-1.72893681h32.18352356c.3978881 0 .7199524-.3224396.7199524-.72032769 0-.39751284-.3220643-.71995244-.7199524-.71995244h-32.18352356c-1.74770508 0-3.16921694 1.42188721-3.16921694 3.16921694v34.84036556c0 1.7473298 1.42151186 3.169217 3.16921694 3.169217h14.01091916v2.5821442h-2.1741211c-1.450415 0-2.6301911 1.1801513-2.6301911 2.6301909v1.5555176c0 .6617707.5382752 1.2004212 1.2000459 1.2004212l33.3719329.0439178c1.2420868 0 2.2521973-1.0104858 2.2521973-2.2521973v-2.2780975zm-45.97597966 36.56930226c-.95343017 0-1.72893681-.7755065-1.72893681-1.7289367v-2.7311645h31.80065007v4.4601012zm28.79584346 1.4402803h1.2758698v2.5821442h-1.2758698zm-1.4399048 0v2.5821442h-11.9051147v-2.5821442zm-16.7094268 6.5279938v-1.3156587c0-.6557648.5341461-1.1899108 1.1902862-1.1899108h18.2349152v1.7375701c0 .269513.0476715.5281403.1351318.7679994zm33.9439911-.7679994c0 .4478119-.3641053.8119172-.8119172.8119172h-11.4546753c-.4478118 0-.8119171-.3641053-.8119171-.8119172v-1.5581451h13.0785096zm0-2.9984252h-13.0785096v-12.5605042c0-.3975128-.3224395-.7199524-.7199523-.7199524-.3978882 0-.7203278.3224396-.7203278.7199524v2.4582733h-31.80065007v-24.04333184h46.26501157v11.01887504c-.236856-.0848327-.4917297-.1313781-.757489-.1313781h-11.4546753c-1.2417114 0-2.2521972 1.0104858-2.2521972 2.2521972v4.0610871c0 .3978881.3224396.7199524.7203278.7199524.3975128 0 .7199523-.3220643.7199523-.7199524v-1.0626618h13.0785096zm0-19.447348h-13.0785096v-1.5585206c0-.4474365.3641053-.8119171.8119171-.8119171h11.4546753c.4478119 0 .8122925.3644806.8122925.8119171v1.5585206z" fill="#00343d"/><g fill="#0bd8a2"><path d="m36.1338776 29.4801361h2.6545898c.3975128 0 .7199524-.3224395.7199524-.7199524 0-.3978881-.3224396-.7203277-.7199524-.7203277h-2.6545898c-.3978882 0-.7199525.3224396-.7199525.7203277 0 .3975129.3220643.7199524.7199525.7199524z"/><path d="m40.8511048 29.4801361h1.1324798c.3975128 0 .7199524-.3224395.7199524-.7199524 0-.3978881-.3224396-.7203277-.7199524-.7203277h-1.1324798c-.3975129 0-.7199525.3224396-.7199525.7203277 0 .3975129.3224396.7199524.7199525.7199524z"/><path d="m43.8765563 29.4801361h2.4304963c.3978882 0 .7203278-.3224395.7203278-.7199524 0-.3978881-.3224396-.7203277-.7203278-.7203277h-2.4304963c-.3975127 0-.7199523.3224396-.7199523.7203277 0 .3975129.3224396.7199524.7199523.7199524z"/><path d="m36.1338776 32.7180451h1.1812774c.3978883 0 .7203278-.3224396.7203278-.7203278 0-.3975129-.3224395-.7199524-.7203278-.7199524h-1.1812774c-.3978882 0-.7199525.3224395-.7199525.7199524 0 .3978882.3220643.7203278.7199525.7203278z"/><path d="m43.4028442 31.9977173c0-.3975129-.3220642-.7199524-.7199523-.7199524h-3.3809235c-.3975128 0-.7199524.3224395-.7199524.7199524 0 .3978882.3224396.7203278.7199524.7203278h3.3809235c.3978881 0 .7199523-.3224396.7199523-.7203278z"/><path d="m46.3070526 31.2777649h-1.3351776c-.3975128 0-.7199524.3224395-.7199524.7199524 0 .3978882.3224396.7203278.7199524.7203278h1.3351776c.3978882 0 .7203278-.3224396.7203278-.7203278 0-.3975129-.3224396-.7199524-.7203278-.7199524z"/><path d="m36.1338776 35.6969513h2.3629303c.3975128 0 .7199524-.3224396.7199524-.7199524 0-.3978882-.3224396-.7203277-.7199524-.7203277h-2.3629303c-.3978882 0-.7199525.3224395-.7199525.7203277 0 .3975128.3220643.7199524.7199525.7199524z"/><path d="m40.4686066 35.6969513h2.9916686c.3975129 0 .7199525-.3224396.7199525-.7199524 0-.3978882-.3224396-.7203277-.7199525-.7203277h-2.9916686c-.3978882 0-.7203278.3224395-.7203278.7203277 0 .3975128.3224396.7199524.7203278.7199524z"/><path d="m46.3070526 34.2566712h-.9188965c-.3975128 0-.7199523.3224395-.7199523.7203277 0 .3975128.3224395.7199524.7199523.7199524h.9188965c.3978882 0 .7203278-.3224396.7203278-.7199524 0-.3978882-.3224396-.7203277-.7203278-.7203277z"/><path d="m36.1338776 38.9348602h3.6144012c.3978882 0 .7203278-.3224396.7203278-.7203277 0-.3975128-.3224396-.7199524-.7203278-.7199524h-3.6144012c-.3978882 0-.7199525.3224396-.7199525.7199524 0 .3978881.3220643.7203277.7199525.7203277z"/><path d="m42.7707275 37.4945801h-.9793304c-.3975128 0-.7199524.3224396-.7199524.7199524 0 .3978881.3224396.7203277.7199524.7203277h.9793304c.3975129 0 .7199525-.3224396.7199525-.7203277 0-.3975128-.3224396-.7199524-.7199525-.7199524z"/><path d="m46.3070526 37.4945801h-1.7064148c-.3975128 0-.7199524.3224396-.7199524.7199524 0 .3978881.3224396.7203277.7199524.7203277h1.7064148c.3978882 0 .7203278-.3224396.7203278-.7203277 0-.3975128-.3224396-.7199524-.7203278-.7199524z"/></g></g></svg>