<svg height="61" viewBox="0 0 46 61" width="46" xmlns="http://www.w3.org/2000/svg"><g fill="none" transform="translate(0 .4)"><path d="m28.1862058 0h-21.61539015c-3.43049628.00396471-6.21047896 2.79733156-6.21442467 6.24434389v47.51131221c.00394571 3.4470123 2.78392839 6.2403792 6.21442467 6.2443439h21.61539015c3.4304963-.0039647 6.210479-2.7973316 6.2144247-6.2443439v-6.2425792h7.1754989c2.0867932-.0023938 3.7778792-1.7016215 3.7802616-3.7984615v-24.421629c0-.2268138-.0944803-.4432785-.2601953-.597285l-7.6133457-7.0775566c-.1497321-.1394842-.3463368-.2170504-.550517-.2171946h-2.5317025v-5.15660631c-.0039457-3.44701233-2.7839284-6.24037918-6.2144247-6.24434389zm0 58.3710407h-21.61539015c-2.53562039-.0028428-4.59044122-2.0675565-4.59327041-4.6153846v-3.5294118h30.80193096v3.5294118c-.0028292 2.5478281-2.05765 4.6125418-4.5932704 4.6153846zm4.5932704-9.7737556h-30.80193096v-38.82352944h22.02067876c.4476694 0 .8105771-.36465496.8105771-.81447964 0-.44982469-.3629077-.81447964-.8105771-.81447964h-22.02067876v-1.90045249c.00282919-2.54782808 2.05765002-4.6125418 4.59327041-4.61538461h21.61539015c2.5356204.00284281 4.5904412 2.06755653 4.5932704 4.61538461v1.90045249h-1.8913466c-.4476694 0-.8105772.36465495-.8105772.81447964 0 .44982468.3629078.81447964.8105772.81447964h1.8913466v1.62719454h-10.9322538c-2.0867932.0023939-3.7778791 1.7016215-3.7802615 3.7984616v28.5152036c.0023824 2.09684 1.6934683 3.7960677 3.7802615 3.7984615h10.9322538zm8.7966532-2.7131675h-19.728907c-1.1918864-.0013465-2.1577671-.9718774-2.1591072-2.1695022v-28.5152036c.0013401-1.1976248.9672208-2.1681557 2.1591072-2.1695023h14.2745335v4.7712217c.0014892 1.2732392 1.0284157 2.3049884 2.2955545 2.3063349h5.3179263v23.6071493c-.0013401 1.1976248-.9672208 2.1681557-2.1591073 2.1695022zm-3.8332192-31.8054298 4.73323 4.3999547h-4.0588298c-.372109-.0005975-.6736565-.3034754-.6744002-.6773755z" fill="#00343d"/><g fill="#0bd8a2"><path d="m26.3350724 9.6h1.4426371c.4300539 0 .7786815-.40294373.7786815-.9s-.3486276-.9-.7786815-.9h-1.4426371c-.4300539 0-.7786814.40294373-.7786814.9s.3486275.9.7786814.9z"/><path d="m16.856391 51c-1.4911688 0-2.7 1.3431458-2.7 3s1.2088312 3 2.7 3 2.7-1.3431458 2.7-3c-.0017005-1.656071-1.2095361-2.9981106-2.7-3zm0 4.2857143c-.6390724 0-1.1571429-.5756339-1.1571429-1.2857143s.5180705-1.2857143 1.1571429-1.2857143c.6390723 0 1.1571428.5756339 1.1571428 1.2857143-.0007085.709754-.5183642 1.284927-1.1571428 1.2857143z"/><path d="m29.4760943 23.2180554c.3713223.2754193.9256766.2334057 1.2381934-.0938407l1.8356136-1.921863c.2753196-.2882423.2753196-.7092833 0-.9975256l-1.8356136-1.921863c-.2008637-.2155515-.5177279-.3192621-.8295451-.2715128s-.5704139.2395816-.6770018.5022139c-.1065879.2626322-.0446999.5554894.1620218.7666953l1.3593178 1.4232294-1.3599037 1.4237457c-.3120069.3272772-.2641537.8154513.1069176 1.0907208z"/><path d="m23.9971707 23.115057c.2002309.2164664.5175664.3210939.8301549.2737073.3125886-.0473866.5718399-.2394212.6782057-.5023658s.0433121-.5559257-.1649496-.7664434l-1.358193-1.4199551 1.358193-1.4199551c.2082617-.2105177.2713154-.5034988.1649496-.7664434s-.3656171-.4549792-.6782057-.5023658c-.3125885-.0473866-.629924.0572409-.8301549.2737073l-1.8344387 1.9174417c-.2751214.2875791-.2751214.7076515 0 .9952306z"/><path d="m26.7808564 24.5904509c.1928456.0330805.3896017-.0205497.5468299-.1490503s.2619982-.3213039.2911798-.5358443l.929079-6.7641693c.0396737-.2888551-.0622477-.5793044-.2673714-.7619385s-.4822866-.2297065-.727084-.1234855c-.2447975.106221-.4200389.3495979-.4597126.638453l-.9289565 6.7641693c-.0294429.2144151.0189211.4330541.1344515.6078147.1155304.1747607.2887627.2913261.4815843.3240509z"/><path d="m28.3443609 36.6h-5.5759398c-.4484719 0-.8120301.4029437-.8120301.9s.3635582.9.8120301.9h5.5759398c.4484718 0 .8120301-.4029437.8120301-.9s-.3635583-.9-.8120301-.9z"/><path d="m31.8313667 36.6c-.4832358 0-.8749757.4029437-.8749757.9s.3917399.9.8749757.9h1.2500486c.4832357 0 .8749757-.4029437.8749757-.9s-.39174-.9-.8749757-.9z"/><path d="m40.356391 36.6h-3.8c-.4418278 0-.8.4029437-.8.9s.3581722.9.8.9h3.8c.4418278 0 .8-.4029437.8-.9s-.3581722-.9-.8-.9z"/><path d="m24.0720005 40.8h-1.231219c-.4884354 0-.8843905.4029437-.8843905.9s.3959551.9.8843905.9h1.231219c.4884354 0 .8843905-.4029437.8843905-.9s-.3959551-.9-.8843905-.9z"/><path d="m36.1489198 40.8h-4.9850577c-.445954 0-.8074711.4029437-.8074711.9s.3615171.9.8074711.9h4.9850577c.445954 0 .8074712-.4029437.8074712-.9s-.3615172-.9-.8074712-.9z"/><path d="m27.718207 40.8h-.1236321c-.4629162 0-.8381839.4029437-.8381839.9s.3752677.9.8381839.9h.1236321c.4629162 0 .838184-.4029437.838184-.9s-.3752678-.9-.838184-.9z"/><path d="m40.3821974 40.8h-.8516129c-.4275753 0-.7741935.4029437-.7741935.9s.3466182.9.7741935.9h.8516129c.4275753 0 .7741936-.4029437.7741936-.9s-.3466183-.9-.7741936-.9z"/><path d="m22.7615028 28.8h2.5897764c.4446509 0 .8051118-.4029437.8051118-.9s-.3604609-.9-.8051118-.9h-2.5897764c-.444651 0-.8051118.4029437-.8051118.9s.3604608.9.8051118.9z"/><path d="m27.956391 27.9c0 .4970563.3620474.9.8086556.9h5.5826888c.4466081 0 .8086556-.4029437.8086556-.9s-.3620475-.9-.8086556-.9h-5.5826888c-.4466082 0-.8086556.4029437-.8086556.9z"/><path d="m37.8091829 28.8h2.4944162c.4709839 0 .8527919-.4029437.8527919-.9s-.381808-.9-.8527919-.9h-2.4944162c-.470984 0-.8527919.4029437-.8527919.9s.3818079.9.8527919.9z"/><path d="m22.8084418 33.6h4.2958983c.4705747 0 .8520509-.4029437.8520509-.9s-.3814762-.9-.8520509-.9h-4.2958983c-.4705747 0-.8520508.4029437-.8520508.9s.3814761.9.8520508.9z"/><path d="m33.356391 32.7c0 .4970563.3807942.9.8505276.9h3.6989447c.4697335 0 .8505277-.4029437.8505277-.9s-.3807942-.9-.8505277-.9h-3.6989447c-.4697334 0-.8505276.4029437-.8505276.9z"/><path d="m30.718207 33.6c.4629162 0 .838184-.4029437.838184-.9s-.3752678-.9-.838184-.9h-.1236321c-.4629162 0-.8381839.4029437-.8381839.9s.3752677.9.8381839.9z"/><path d="m40.8756032 31.8h-.6384244c-.4864457 0-.8807878.4029437-.8807878.9s.3943421.9.8807878.9h.6384244c.4864456 0 .8807878-.4029437.8807878-.9s-.3943422-.9-.8807878-.9z"/></g></g></svg>