<svg height="53" viewBox="0 0 52 53" width="52" xmlns="http://www.w3.org/2000/svg"><g fill="none" transform="translate(0 .4)"><path d="m39.6750682 16.4942796c.756741.7567408 2.0509801.6530131 2.6788471-.2133491 1.3743924-1.8977458 2.5087178-3.7711313 2.4666766-7.4903989-.0129659-1.1468985-.9213693-2.05530189-2.0682679-2.06826793-3.7259469-.04125532-5.5910814 1.09149859-7.4903989 2.46667674-.8667551.627867-.9693041 1.92289189-.213349 2.67884699 0 0 4.6237418 4.6241348 4.6264921 4.6264922zm-3.6332206-5.8947994c.0058936-.0726879.0416482-.1426255.1052994-.1885958 1.7060067-1.2356958 3.2611367-2.1810326 6.4020436-2.1810326.3732627 0 .7575267.1320171.7626345.57757487.0369334 3.26388713-.9221551 4.85162853-2.1798538 6.58788913-.0919405.1273022-.2797505.1422327-.3901577.0322184l-4.6264921-4.6264922c-.0554001-.0554-.0793675-.1296596-.0734739-.2015618z" fill="#0bd8a2"/><path d="m48.7162752 24.5944718c-.7504543-.7500614-2.0030451-.7496685-2.7523208 0l-2.8124358 2.8120428c-.5697166.5701096-.7115564 1.4081825-.4259122 2.1114879l-2.5849421 2.5849419c.0660086-.918226.1650214-1.9048182.3151122-2.9813861.6585139-4.7231476 2.499681-7.1843236 4.2803403-9.5645605 2.2541134-3.0132118 4.3828892-5.8590447 3.8717158-12.48268853-.1681647-2.17710343-1.9645402-3.97072862-4.1392863-4.13928615-6.6240366-.51117343-9.4694767 1.61799527-12.4826884 3.8717158-2.3802369 1.78065925-4.8414129 3.62182638-9.5645605 4.28034018-1.076568.1500909-2.0631601.2491037-2.9813862.3151123l2.5841562-2.58454917c.230637.09429793.4793478.14380439.7359168.14380439.5198172 0 1.0085949-.20234766 1.3759639-.57010959l2.8124358-2.81204283c.7587055-.75870546.7587055-1.99361536 0-2.75232081 0 0-2.2120723-2.21207233-2.2140368-2.21403684-.7504544-.75045441-2.0026523-.75006143-2.7523208 0 0 0-2.8112571 2.81125706-2.8124359 2.81243581-.5473208.54732088-.7186287 1.39521638-.4263052 2.11148777l-5.9953838 5.99538387c-2.7338541.0447914-5.0068271.3489023-7.8683764 2.136241-.78581608.4907421-1.58695561 1.0757822-2.44938878 1.7889103-1.9346792 1.5995286-2.10048635 4.6555674-.29625262 6.4598012l8.0758318 8.0758318-2.7283534 2.7279606c-.81606997.0719022-2.93698754.4577378-4.72786244 2.4898582-2.51736185 2.8568344-3.31378638 7.6648501-2.36766381 14.2908513.12180144.8530034.80231817 1.5335201 1.65532155 1.6553216 2.67648959.3822996 5.43195366.5563577 8.1194447.1768086.4125535-.0585432.6997692-.440057.6412259-.8526105-.0581504-.4125534-.4392711-.6997692-.85221753-.6416188-2.15549356.3045038-4.74436463.2451746-7.69549696-.1760228-.19331075-.0275036-.34733071-.1819164-.37483422-.3752272-.86479058-6.0562845-.18034482-10.5692263 1.98025653-13.0504405 1.39403774-1.6014933 3.01321175-1.9366438 3.65679507-2.0069744l1.88635159 1.8863516c-1.42547038 1.0753893-3.25602897 3.2799963-3.88861097 7.6837096-.19016739 1.3229214.86596943 2.4234569 2.22778865 2.2273957 4.40371334-.632189 6.60792744-2.4631405 7.68331674-3.8886109l1.8867444 1.8867444c-.0966553.9009381-.7040912 3.6666179-4.5066552 5.1070188-.3897648.1477334-.5858259.5830755-.4380925.9728403.1473406.3897648.5826827.5858258.9724475.4380924 2.8552626-1.0816758 4.1982224-2.8552627 4.8221603-4.1526451.478562-.9956289.619616-1.8545259.6596927-2.3303375l2.7287463-2.7287464s8.0699383 8.0699383 8.0758318 8.0758319c1.7928395 1.7932323 4.8410201 1.6608222 6.4598012-.2962527.7131281-.8624332 1.2981682-1.6635726 1.7885174-2.4493887 1.7877316-2.8611564 2.0914496-5.1341294 2.136241-7.8683765l5.9953839-5.9953837c.230637.0942979.4793478.1438043.7355238.1438043.5198174 0 1.0089879-.2023477 1.3763568-.5701096l2.8124358-2.8120428c.7587055-.7590984.7587055-1.9936155 0-2.7523209 0 0-2.2132509-2.212858-2.2140368-2.2140368zm-41.18894288 19.940869c-.36461866.0522567-.57128834-.1614853-.51981736-.5198174.58936206-4.1027457 2.26982973-5.9812392 3.47448584-6.818919l3.8638576 3.8642505c-.837287 1.2046561-2.7157804 2.8851238-6.81852608 3.4744859zm9.67221728-33.0266713c-.7669565.0192525-1.533913.0192525-2.3012624.0192525-.0039291 0-.0082512 0-.0121802 0l4.8170526-4.81705264 1.1472915 1.1468986zm3.0371791-7.01694476s2.8096854-2.80968544 2.8120429-2.81204284c.1697363-.16973627.4494868-.16934339.6188301 0l2.2140368 2.21364386c.1705221.17091503.1705221.44830805 0 .6188302 0 0-2.8045775 2.80418467-2.8124358 2.81243571-.1693433.16934339-.4498797.16855763-.6188301 0 0 0-2.2042141-2.20421407-2.2136439-2.21403674-.1693434-.16895051-.1685575-.45027267 0-.61883019zm-2.1523502 38.17376666-9.20701425-9.2070142 2.39909655-2.3990965 9.2070141 9.2070142zm16.8388599 5.4853892c-1.0581013 1.2797015-3.0603607 1.3614263-4.2304409.1913461 0 0-27.48588211-27.4862749-27.49216864-27.4921686-1.174795-1.1751879-1.09031974-3.170375.19095336-4.2304408.62629537-.5174599 1.21487167-.961446 1.78615991-1.3464959l5.29561467 5.2960075c.2946811.294681.7720642.294681 1.0667453 0 .294681-.294681.294681-.7724572 0-1.0667453l-5.03511656-5.0355095c2.2568638-1.2144788 4.15500256-1.4062179 6.56706506-1.4301853 3.2065225-.0314326 6.3717897-.0113943 9.5574881-.4553804 5.1074116-.7123423 7.8448019-2.7597861 10.2596148-4.56637722 2.9004471-2.16963826 5.404843-4.04341669 11.4626992-3.57585617 1.4451158.11158598 2.6395562 1.30720508 2.751535 2.75153504.4675605 6.05785625-1.4062179 8.56264505-3.5758561 11.46269925-1.8061983 2.4152058-3.8540349 5.1522032-4.5659844 10.2600077-.4432003 3.1778402-.4227689 6.3584309-.4557733 9.557881-.0239674 2.4116696-.2153135 4.3094154-1.4301853 6.5666722l-23.401603-23.401996c-.294681-.294681-.7724571-.294681-1.0667452 0-.2577477.2577477-.3005748.70527-.0518639 1.0093808.0161092.0200384.0333972.0392908.0518639.0573646l23.662101 23.6624939c-.384657.5712883-.8286431 1.1598645-1.346103 1.7857671zm5.0916954-11.4941319c0-.017288 0-.0707235 0-.0801532-.0019646-.7378813.0007857-1.4903002.0192524-2.2336822l3.6509015-3.6505087 1.1468986 1.1472915zm9.84824-8.1626646s-2.8088996 2.8088997-2.8120428 2.8120429c-.1693434.1693433-.4494868.1693433-.6188302 0l-2.2140369-2.2140368c-.170522-.1705222-.170522-.4479152 0-.6184373 0 0 2.8069351-2.8069351 2.8124359-2.8124357.1689504-.1689505.4502725-.1685577.61883 0l2.213644 2.2140367c.1705221.1705221.1705221.4479153 0 .6188302z" fill="#00343d"/></g></svg>