<svg fill="none" height="90" viewBox="0 0 90 90" width="90" xmlns="http://www.w3.org/2000/svg" xmlns:xlink="http://www.w3.org/1999/xlink"><mask id="a" height="33" maskUnits="userSpaceOnUse" width="14" x="8" y="48"><path clip-rule="evenodd" d="m8 48.0857h13.9801v32.9142h-13.9801z" fill="#fff" fill-rule="evenodd"/></mask><g clip-rule="evenodd" fill-rule="evenodd"><path d="m78.8212 38.3027-27.0555 26.6973-2.7657-1.5305 25.4787-25.1421c.2385-.24.2385-.6241 0-.8641l-9.5734-9.4422c-.1062-.1017-.2191-.1964-.3377-.2838 1.4081-1.0741 3.4028-.9636 4.6803.2592l9.5733 9.4422c.2384.24.2384.624 0 .864z" fill="#0bd8a2"/><path d="m49.8605 64-2.3605-6-10.2936-1.1261-17.0312-17.1547c-.2336-.2403-.2336-.6246 0-.8647l9.6867-9.7444c1.3931-1.365 1.426-3.6083.0736-5.0143l-.0982-.0988c-.3714-.3584-.8937-.5106-1.3978-.4076-2.7881.4769-5.5789-.8304-7.0135-3.2851-1.2966-2.2684-1.24-5.0734.147-7.2868.9276-1.4946 2.3466-2.6137 4.0095-3.16163 2.4646-.82468 5.1801-.18511 7.0259 1.65483 1.5515 1.5777 2.2464 3.8156 1.8638 6.0023-.091.4879.0497.9904.38 1.3586l.135.1235c.1014.1048.2122.1998.331.2841 1.4165 1.0801 3.4104.9264 4.6471-.3582l7.9822-8.0277 1.7045-1.7168c.2383-.23533.6198-.23533.8582 0l9.3801 9.4481c1.3525 1.4059 1.3195 3.6492-.0736 5.0143l-.1349.1358c-.3615.3505-.8652.5104-1.3609.4323-2.2146-.2993-4.4407.4588-6.0205 2.0501-1.555 1.5129-2.3299 3.6637-2.0997 5.8289.2299 2.1653 1.4392 4.1024 3.2769 5.2494.4559.2843.9463.5085 1.4591.6669 1.9403.5968 4.041.3318 5.775-.7285 2.4589-1.488 3.8146-4.2967 3.4579-7.1634-.077-.5165.0855-1.0401.4414-1.4202l.1104-.1112c.1218-.1212.253-.2327.3923-.3334.1164.0874.2268.1822.331.2841l9.3801 9.4479c.2336.2403.2336.6245 0 .8646z" fill="#0bd8a2"/><path d="m20.1779 39.2364c-.2372.2392-.2372.6222 0 .8614l14.9404 14.7686c.4858.3747 1.0026.7087 1.5451.9979.5551.094 1.1176.1393 1.6808.1354l1.6558.0003-16.087-15.9022c-.2372-.2392-.2372-.6222 0-.8614l9.8357-9.7103c1.4139-1.3606 1.4473-3.5955.0747-4.9967l-.0995-.0984c-.3773-.3571-.9075-.5089-1.4193-.4061-2.8313.4755-5.6651-.8273-7.1217-3.2737-1.3166-2.2604-1.2591-5.0556.1494-7.2612.9417-1.4893 2.3826-2.6044 4.0713-3.1506.1145-.0369.2315-.0554.3474-.0861-1.3403-.36488-2.7592-.33502-4.0825.0861-1.6887.5462-3.1296 1.6613-4.0712 3.1506-1.4084 2.2056-1.4661 5.0008-.1494 7.2612 1.4565 2.4464 4.2903 3.7492 7.1216 3.2737.5118-.1028 1.042.049 1.4193.4061l.0995.0984c1.3727 1.4012 1.3392 3.6361-.0747 4.9967z" fill="#fff"/></g><path d="m49.966 8.71257 9.7769 9.83723c1.6211 1.6814 1.5918 4.3734-.0711 6.0238l-.1377.1374c-.4699.4621-1.1135.6995-1.7661.6572l-.1781-.0186c-1.9818-.263-3.9681.4057-5.3893 1.8115-1.4204 1.4051-2.1179 3.3897-1.8914 5.3802.2116 1.8878 1.2903 3.5681 2.9151 4.5398 1.9979 1.1872 4.4842 1.1609 6.4557-.0674 2.1247-1.2852 3.3335-3.6751 3.1299-6.1516l-.0261-.2564c-.1066-.7504.1339-1.4981.65-2.0354l.1083-.1077c1.6397-1.6696 4.302-1.7001 5.9747-.0721l9.7708 9.8313c.2832.2852.2832.7487-.0001 1.034l-26.5303 26.6322c.0265-.027.0104-.0369-.0408-.0455l-.6228-.0946c-.057-.0059-.1039-.0076-.161-.007l-.5483.0979-.0743.0004c-.0267.0021-.0553.0061-.089.0128l-.002-.012c-.0202-.2137.0537-.43.2092-.5865l26.3353-26.5111-9.2628-9.3204c-1.0786-1.0259-2.7372-1.0318-3.8121-.0531l-.2453.242c-.2145.2873-.2761.5715-.2217.8451.3836 3.0962-1.0963 6.1645-3.7811 7.7939-2.4449 1.5138-5.5173 1.5373-7.981.0635-1.9848-1.2085-3.3083-3.2736-3.5841-5.5963-.281-2.4381.5717-4.872 2.3109-6.5948 1.7382-1.722 4.168-2.5411 6.5857-2.2204.2374.0379.4929-.0274.6937-.1821l.1843-.1768c1.1001-1.0719 1.1366-2.8383.0793-3.9577l-9.2724-9.3249-9.5727 9.6205c-.7942.8069-1.8675 1.2678-2.9926 1.2865h-.0663c-1.0969.005-2.1481-.4318-2.921-1.2129l-.1109-.1006c-.4954-.5079-.7312-1.2569-.6103-1.9922.3469-1.8913-.2265-3.8449-1.5456-5.2503-1.3198-1.4061-3.2277-2.0945-5.1357-1.8528-2.0047.2436-3.7907 1.3969-4.8467 3.1305-1.2342 1.9611-1.2884 4.4556-.1369 6.4754 1.2429 2.1166 3.6098 3.2745 6.0131 2.9679l.2487-.037c.7345-.1362 1.4812.0937 2.009.6152l.0937.0942c.789.7933 1.2221 1.877 1.1987 2.9999-.0137 1.139-.4685 2.2227-1.2667 3.0229l-9.5683 9.6121 16.8878 16.9938c.269.2804.2651.7371-.0149 1.0189-.2783.28-.7269.2839-1.01.0088l-17.3962-17.5043c-.1364-.137-.2131-.3231-.2131-.5174 0-.1944.0767-.3805.2128-.5172l10.0823-10.1312c.5328-.5304.8387-1.2516.8507-2.0073.0159-.7272-.2642-1.4325-.7764-1.9506l-.0983-.0991c-.2412-.1767-.4707-.2393-.6903-.2158l-.1089.0187c-3.0371.5192-6.1095-.9163-7.6912-3.6151-1.4352-2.4924-1.379-5.5845.1478-8.0256 1.2978-2.1095 3.4793-3.50363 5.9239-3.78836 2.3515-.28779 4.6968.5619 6.3247 2.29036 1.6288 1.7294 2.3468 4.1337 1.935 6.4806-.0455.2112-.0027.4507.1231.6486l.0932.1084.0746.0652c.4628.5374 1.2141.8528 1.9878.8061.7326-.014 1.4497-.3245 1.9772-.8639l10.0793-10.13053c.2818-.28362.7371-.28362 1.0187-.0002z" fill="#00343d"/><g mask="url(#a)"><path clip-rule="evenodd" d="m18.1674 48.0857h-6.3547c-2.10312.006-3.80636 1.6399-3.81276 3.6572v25.6c.0064 2.0173 1.70964 3.651 3.81276 3.657h6.3547c1.4026-.001 2.6912-.7409 3.3552-1.926.3025-.5307.4599-1.1263.4575-1.731v-25.6c-.0062-2.0173-1.7096-3.6512-3.8127-3.6572z" fill="#0bd8a2" fill-rule="evenodd"/></g><path clip-rule="evenodd" d="m13.1428 48h-1.2856c-2.12766.006-3.85087 1.6441-3.8572 3.6667v25.6668c.00633 2.0225 1.72954 3.6605 3.8572 3.6665h1.2856c1.419-.001 2.7226-.7428 3.3943-1.931.306-.5321.4653-1.1292.4629-1.7355v-25.6668c-.0064-2.0226-1.7296-3.6607-3.8572-3.6667z" fill="#0bd8a2" fill-rule="evenodd"/><path clip-rule="evenodd" d="m23.3871 78c-.0019.3315-.1348.6577-.3871.95l.3871.05h1.2904c.1994-.3192.3085-.6576.3225-1z" fill="#fff" fill-rule="evenodd"/><path d="m51.4867 79.5c1.6061.0006 3.1833-.41 4.5812-1.1898l.2967-.1727 23.1498-14.0288c.9942-.6015 1.6868-1.5927 1.908-2.7319.2033-1.0182.0031-2.0721-.57-2.9689l-.1841-.2698c-1.0208-1.3558-2.7704-1.9396-4.3975-1.4865l-.2027.062-22.8642 7.5867c-.343.1138-.6992.183-1.0597.2061l-.2711.0086h-10.9792c-2.2027-.002-4.3592.609-6.2281 1.7604l-.347.2222-.9051.5997c-.3371.2239-.4277.6758-.2033 1.0107.2047.3056.6016.4086.9263.2559l.095-.0536.9038-.5996c1.5981-1.0632 3.4598-1.6607 5.3752-1.7297l.3837-.0067h10.9794c.5104.0007 1.0182-.0671 1.5095-.2011l.2927-.0883 22.8544-7.5863c1.0327-.3545 2.1783-.0362 2.9242.8657l.0396.0586c.4494.5952.6253 1.3523.4839 2.0837-.1292.6704-.5137 1.2622-1.0686 1.6542l-.1555.1019-23.1544 14.0298c-1.1439.6933-2.4444 1.0852-3.7789 1.1413l-.3342.0071h-31.2513c-.4066 0-.7352.3271-.7352.7295 0 .369.2761.6746.6353.7229l.0999.0067z" fill="#00343d"/><path clip-rule="evenodd" d="m20 50.9594v.016c.3353.0074.6695.0258 1 .0652-.0084-.027-.0143-.0542-.0239-.0812z" fill="#fff" fill-rule="evenodd"/><path clip-rule="evenodd" d="m8 52.0289h2.8445v25.8844h-2.8445z" fill="#fff" fill-rule="evenodd"/><g fill="#00343d"><path d="m18.3558 48.0908-.1884-.005h-6.3547c-1.8341 0-3.31276 1.4182-3.31276 3.157 0 .3923.34063.719.77102.719.43026 0 .77084-.3267.77084-.719 0-.9064.7197-1.642 1.6263-1.7133l.1446-.0057h6.3547c.9248 0 1.6908.6903 1.7651 1.5774l.0059.1416v25.6c0 .9065-.7198 1.6422-1.6264 1.7135l-.1446.0057h-6.3547c-.9734 0-1.7709-.765-1.7709-1.7192 0-.3922-.34064-.719-.77084-.719-.43033 0-.77102.3268-.77102.719 0 1.6789 1.37842 3.059 3.12436 3.1521l.1884.0051 6.3543-.001.1888-.0041c1.6836-.0898 3.0254-1.3762 3.1191-2.9734l.0052-.1787v-25.6c0-1.6788-1.3783-3.0588-3.1243-3.152z"/><path d="m9.00443 61.4999c-.13977.0021-.27379.0567-.35621.1339-.04691.0495-.08367.1072-.11019.1742-.07703.1899-.03506.4073.09014.5382.04957.0467.10779.0836.18349.1137.06077.0258.12571.0394.17842.0401.1398-.0019.27358-.0564.35744-.1352.07686-.0805.12705-.1816.14509-.2898l.00636-.076-.00597-.0736c-.01233-.08-.03915-.1528-.06735-.2027l-.02816-.0418-.1194-.097-.03801-.021-.10706-.0451-.01812-.0047c-.04482-.0075-.08936-.012-.11047-.0132z"/><path d="m20.2156 51.5h3.4037c2.558.0036 5.0435.8452 7.0871 2.394l.2889.2261c1.8407 1.4875 4.1257 2.2996 6.4817 2.303h6.3596c2.3824.0074 4.591 1.2734 5.8253 3.3416l.1091.183.1222.2163c.9751 1.8113.8589 3.8362-.3015 5.3837l-.1387.1753-.0235-.0225c-.0412-.0385-.0781-.0694-.1198-.0972l-.0704-.0437c-.1166-.0662-.2309-.096-.3662-.0477l-.0841.0381.0737.0223c-.1197-.0415-.2296-.0637-.3681-.063l-.1311.0008-.3975.2259-.1188.0201-.0652.0179v-.054c.0119-.1799.0888-.353.2226-.482 1.1865-1.222 1.4039-3.0814.541-4.5351l-.1097-.1841c-.9717-1.6296-2.7139-2.6285-4.5965-2.6341h-6.3617c-2.5579-.0035-5.0434-.8451-7.087-2.394l-.2889-.2261c-1.8407-1.4875-4.1257-2.2995-6.4817-2.303h-3.4045c-.3938 0-.7156-.3258-.7156-.7307 0-.4051.3218-.7309.7156-.7309z"/></g></svg>