<svg height="60" viewBox="0 0 72 60" width="72" xmlns="http://www.w3.org/2000/svg"><g fill="none" stroke="#fff" stroke-width=".9" transform="translate(1.4 1.6)"><path d="m68.1010135 20.0193891c-1.8336019-1.736035-4.7185291-1.736035-6.552131 0l-11.4600117 11.3768079-.8218424-.8046135c-1.3712449-1.3073565-3.5372013-1.3073565-4.908446 0-1.2112851 1.2136534-1.3441139 3.1253118-.3125714 4.4932668l-7.5356291 3.3895885c-.388312.177868-.6466216.553242-.6714915.9768705l-.8218426 12.1808603c-.02487.3327306.0977845.6598504.3357458.8960723.2181783.2154613.5143582.3349751.8218426.3333093h.0808277l12.2705496-.815853c.4267477-.0246883.8054509-.2811097.9840631-.6665835l3.4727651-7.4805487c.5934902.4466335 1.3158524.6923941 2.0602587.7008106.924714.0022443 1.8126883-.3619078 2.4660927-1.0110973 1.3537227-1.3460724 1.3537227-3.5264962 0-4.8725686l-.8681913-.7928304 5.0469269-5.0100375c.2193089-.2160224.3425287-.5094761.3425287-.8158353s-.1232198-.600374-.3425287-.8158354c-.4516176-.4455113-1.1807627-.4455113-1.6323804 0l-5.0587967 5.0218204-3.2641958-3.2521197 11.4600118-11.3762469c.9032355-.8915835 2.3615254-.8915835 3.2647609 0 .4346608.4309227.6788396 1.0155861.6788396 1.6254989 0 .6104738-.2441788 1.195137-.6788396 1.6260597l-3.1370193 3.0910848c-.4487915.4483167-.4487915 1.1721323 0 1.6204489.2170478.2177057.5132278.340025.8218426.340025s.6042294-.1223193.8218426-.340025l3.1370191-3.1140897c.8693218-.8618454 1.3576794-2.0322944 1.3576794-3.2521197 0-1.2198255-.4883576-2.3897133-1.3576794-3.2521197zm-20.4200169 29.7740648-8.5083875.5633416 3.6581601-3.6662095c.462357.2227556.9682367.340025 1.4814644.3450748 1.9183862 0 3.4727651-1.5435785 3.4727651-3.4473815-.0005652-.9140274-.3668334-1.7904614-1.0185421-2.4362842-1.3559836-1.3443892-3.5524622-1.3443892-4.9078807 0-1.0309771 1.0318577-1.2994608 2.5945137-.6714917 3.9069201l-3.692639 3.6774315.5669243-8.446197 7.6401963-3.4473815 5.4177169 5.3781171zm-4.1323869-5.4011223c-.2181783-.2120947-.3430938-.5010598-.3476156-.8040523 0-.634601.5183146-1.1491447 1.1575883-1.1491447.3080496-.0016658.6036643.117848.8218425.3333094.3306589.2805484.4742269.721571.3730509 1.1412717-.1017412.4197008-.4323999.7479426-.855191.8489401-.422791.1004365-.8670609-.0420822-1.1496751-.3703242zm12.2705496-2.4357231c-.4516177.4455111-1.1807628.4455111-1.6323804 0l-8.1839463-8.1246883c-.4493568-.4477557-.4493568-1.1721321 0-1.6198878.4510525-.4455112 1.1801975-.4455112 1.6318153 0l8.1845114 8.1241272c.4487915.4483167.4487915 1.1721321 0 1.6204489z" fill="#00343d"/><path d="m8.1031185 5.74731924c0 .63460103-.51831467 1.14912718-1.15758835 1.14912718-.63927369 0-1.15758836-.51452615-1.15758836-1.14912718 0-.63460104.51831467-1.14912718 1.15758836-1.14912718.63927368 0 1.15758835.51452614 1.15758835 1.14912718z" fill="#0bd8a2"/><path d="m12.7334719 5.74731924c0 .63460103-.5183146 1.14912718-1.1575883 1.14912718s-1.1575884-.51452615-1.1575884-1.14912718c0-.63460104.5183147-1.14912718 1.1575884-1.14912718s1.1575883.51452614 1.1575883 1.14912718z" fill="#0bd8a2"/><path d="m17.3638254 5.74731924c0 .63460103-.5183147 1.14912718-1.1575884 1.14912718s-1.1575884-.51452615-1.1575884-1.14912718c0-.63460104.5183147-1.14912718 1.1575884-1.14912718s1.1575884.51452614 1.1575884 1.14912718z" fill="#0bd8a2"/><path d="m24.3093555 4.59819206c-.6392737 0-1.1575883.51452614-1.1575883 1.14912718 0 .63460103.5183146 1.14912718 1.1575883 1.14912718h30.0972973c.6392737 0 1.1575884-.51452615 1.1575884-1.14912718 0-.63460104-.5183147-1.14912718-1.1575884-1.14912718z" fill="#0bd8a2"/><path d="m59.0370062 45.3809851c-.6392736 0-1.1575883.5145261-1.1575883 1.1491272v8.6296758h-55.56424118v-43.666833h52.09147608c.6392737 0 1.1575884-.5145261 1.1575884-1.1491271 0-.63460107-.5183147-1.14912722-1.1575884-1.14912722h-52.09147608v-6.89476309h55.56424118v14.93865341c0 .634601.5183147 1.1491271 1.1575883 1.1491271.6392737 0 1.1575884-.5145261 1.1575884-1.1491271v-16.08778059c0-.63460103-.5183147-1.14912721-1.1575884-1.14912721h-57.87941784c-.63927369 0-1.15758836.51452618-1.15758836 1.14912721v55.15810469c0 .6346011.51831467 1.1491272 1.15758836 1.1491272h57.87941784c.6392737 0 1.1575884-.5145261 1.1575884-1.1491272v-9.7788029c0-.6346011-.5183147-1.1491272-1.1575884-1.1491272z" fill="#00343d"/><g fill="#0bd8a2"><path d="m54.4066528 24.1333542v-9.1930175c0-.634601-.5183147-1.1491272-1.1575884-1.1491272h-46.30353425c-.63927369 0-1.15758836.5145262-1.15758836 1.1491272v2.2982544c0 .634601.51831467 1.1491271 1.15758836 1.1491271.63927368 0 1.15758835-.5145261 1.15758835-1.1491271v-1.1491272h43.9883576v6.8947631h-43.9883576v-1.1491272c0-.634601-.51831467-1.1491272-1.15758835-1.1491272-.63927369 0-1.15758836.5145262-1.15758836 1.1491272v2.2982544c0 .634601.51831467 1.1491271 1.15758836 1.1491271h46.30353425c.6392737 0 1.1575884-.5145261 1.1575884-1.1491271z"/><path d="m25.4669439 28.7298629c0-.6346011-.5183147-1.1491272-1.1575884-1.1491272h-6.9455301c-.6392737 0-1.1575884.5145261-1.1575884 1.1491272 0 .634601.5183147 1.1491272 1.1575884 1.1491272h5.7879418v11.4912718h-13.89106034v-11.4912718h3.47276504c.6392737 0 1.1575884-.5145262 1.1575884-1.1491272 0-.6346011-.5183147-1.1491272-1.1575884-1.1491272h-4.6303534c-.63927368 0-1.15758835.5145261-1.15758835 1.1491272v13.7895262c0 .634601.51831467 1.1491271 1.15758835 1.1491271h16.206237c.6392737 0 1.1575884-.5145261 1.1575884-1.1491271z"/><path d="m8.1031185 50.5632793c-.63927368 0-1.15758835.5145262-1.15758835 1.1491272 0 .6346011.51831467 1.1491272 1.15758835 1.1491272h16.206237c.6392737 0 1.1575884-.5145261 1.1575884-1.1491272v-4.5965087c0-.634601-.5183147-1.1491272-1.1575884-1.1491272h-16.206237c-.63927368 0-1.15758835.5145262-1.15758835 1.1491272s.51831467 1.1491272 1.15758835 1.1491272h15.0486487v2.2982543z"/><path d="m39.3580042 28.7298629c0-.6346011-.5183147-1.1491272-1.1575884-1.1491272h-8.1031185c-.6392737 0-1.1575884.5145261-1.1575884 1.1491272 0 .634601.5183147 1.1491272 1.1575884 1.1491272h8.1031185c.6392737 0 1.1575884-.5145262 1.1575884-1.1491272z"/><path d="m30.0972973 32.1772444c-.6392737 0-1.1575884.5145262-1.1575884 1.1491272v8.0438903c0 .634601.5183147 1.1491272 1.1575884 1.1491272s1.1575884-.5145262 1.1575884-1.1491272v-6.8947631h4.6303534c.6392737 0 1.1575883-.5145262 1.1575883-1.1491272s-.5183146-1.1491272-1.1575883-1.1491272z"/></g></g></svg>